<svg width="83" height="24" viewBox="0 0 83 24" fill="none" xmlns="http://www.w3.org/2000/svg">
<g filter="url(#filter0_d_101_2)">
<path d="M4.2642 0.454545H8.05682L12.0625 10.2273H12.233L16.2386 0.454545H20.0312V15H17.0483V5.53267H16.9276L13.1634 14.929H11.1321L7.3679 5.49716H7.24716V15H4.2642V0.454545ZM31.5494 0.454545H34.6246V9.90057C34.6246 10.9612 34.3713 11.8892 33.8647 12.6847C33.3628 13.4801 32.6597 14.1004 31.7553 14.5455C30.851 14.9858 29.7975 15.206 28.5948 15.206C27.3874 15.206 26.3316 14.9858 25.4272 14.5455C24.5228 14.1004 23.8197 13.4801 23.3178 12.6847C22.8159 11.8892 22.565 10.9612 22.565 9.90057V0.454545H25.6403V9.63778C25.6403 10.1918 25.761 10.6842 26.0025 11.1151C26.2487 11.5459 26.5943 11.8845 27.0394 12.1307C27.4845 12.3769 28.003 12.5 28.5948 12.5C29.1914 12.5 29.7099 12.3769 30.1502 12.1307C30.5953 11.8845 30.9386 11.5459 31.18 11.1151C31.4263 10.6842 31.5494 10.1918 31.5494 9.63778V0.454545ZM49.321 0.454545V15H46.6648L40.3366 5.84517H40.2301V15H37.1548V0.454545H39.8537L46.1321 9.60227H46.2599V0.454545H49.321ZM51.0096 0.454545H54.4542L57.771 6.71875H57.913L61.2298 0.454545H64.6744L59.369 9.85795V15H56.315V9.85795L51.0096 0.454545ZM67.3768 15H64.0813L69.1026 0.454545H73.0657L78.0799 15H74.7844L71.141 3.77841H71.0273L67.3768 15ZM67.1708 9.28267H74.9549V11.6832H67.1708V9.28267Z" fill="url(#paint0_linear_101_2)"/>
</g>
<defs>
<filter id="filter0_d_101_2" x="0.264191" y="0.454544" width="81.8157" height="22.7514" filterUnits="userSpaceOnUse" color-interpolation-filters="sRGB">
<feFlood flood-opacity="0" result="BackgroundImageFix"/>
<feColorMatrix in="SourceAlpha" type="matrix" values="0 0 0 0 0 0 0 0 0 0 0 0 0 0 0 0 0 0 127 0" result="hardAlpha"/>
<feOffset dy="4"/>
<feGaussianBlur stdDeviation="2"/>
<feComposite in2="hardAlpha" operator="out"/>
<feColorMatrix type="matrix" values="0 0 0 0 0 0 0 0 0 0 0 0 0 0 0 0 0 0 0.25 0"/>
<feBlend mode="normal" in2="BackgroundImageFix" result="effect1_dropShadow_101_2"/>
<feBlend mode="normal" in="SourceGraphic" in2="effect1_dropShadow_101_2" result="shape"/>
</filter>
<linearGradient id="paint0_linear_101_2" x1="78" y1="20" x2="44" y2="99" gradientUnits="userSpaceOnUse">
<stop stop-color="#79DFFF"/>
<stop offset="0.0001" stop-color="white"/>
<stop offset="0.489583" stop-color="#04607D"/>
</linearGradient>
</defs>
</svg>
